<svg width="93" height="94" viewBox="0 0 93 94" fill="none" xmlns="http://www.w3.org/2000/svg">
<path d="M44.093 93.04C43.213 87.84 40.893 82.24 37.133 76.24C33.373 70.16 28.013 64.52 21.053 59.32C14.173 54.12 7.29297 50.8 0.412969 49.36V44.32C7.21297 42.72 13.733 39.76 19.973 35.44C26.293 31.04 31.573 25.76 35.813 19.6C40.133 13.28 42.893 7.04 44.093 0.879999H49.133C49.853 4.87999 51.293 8.99999 53.453 13.24C55.613 17.4 58.373 21.4 61.733 25.24C65.173 29 69.013 32.4 73.253 35.44C79.573 39.92 86.013 42.88 92.573 44.32V49.36C88.173 50.24 83.613 52.04 78.893 54.76C74.253 57.48 69.933 60.72 65.933 64.48C61.933 68.16 58.653 72.04 56.093 76.12C52.333 82.12 50.013 87.76 49.133 93.04H44.093Z" fill="url(#paint0_linear_1001_47)"/>
<defs>
<linearGradient id="paint0_linear_1001_47" x1="76.74" y1="52" x2="9.1146" y2="32.0683" gradientUnits="userSpaceOnUse">
<stop stop-color="#005DFF"/>
<stop offset="1" stop-color="#FB00D1"/>
</linearGradient>
</defs>
</svg>
